<svg version="1" xmlns="http://www.w3.org/2000/svg" width="4096" height="4096" viewBox="0 0 3072.000000 3072.000000"><path d="M559.6 1194.8c-.2.4-.5 4.7-.6 9.7-.1 4.9-.4 11.7-.5 15-.1 3.3-.6 13.6-.9 23-.4 9.3-.9 20.4-1.1 24.5-.2 4.1-.7 14.5-1 23-.3 8.5-.8 19.3-1 24-.2 4.7-.7 15.2-1 23.5-.4 8.2-.8 18.8-1 23.5-.2 4.7-.7 15.2-1 23.5-.3 8.2-.7 18-.9 21.7l-.3 6.8h57.5l.5-2.3c.5-2 12.2-63 14.6-75.7.5-3 2.6-13.6 4.5-23.5s3.8-19.6 4.1-21.5c.3-1.9 1.9-10.3 3.6-18.5 1.6-8.3 3.2-16.4 3.5-18 .3-1.7.7-3.7.9-4.5.2-.8.4-2.1.4-2.8.1-.9 21.9-1.2 105.6-1.2H851l.1 5.7c0 3.2.2 14.6.4 25.3 1.2 61.2 1.6 142.6 1.5 342 0 122.4-.2 239.8-.4 261-.6 46.4-1.6 100.3-1.9 100.6-.2.3-7.9 1.1-16.7 1.9-3.6.3-8.5.8-11 1-2.5.2-7.4.7-11 1-3.6.4-7.6.8-9 1-1.4.2-6.3.6-11 1-4.7.3-10.3.8-12.5 1-2.2.3-6.9.7-10.5 1.1-3.6.3-7.6.7-9 .9-1.4.1-6.1.6-10.5.9-4.4.4-9.6.9-11.5 1.1-1.9.3-6.6.7-10.5 1.1-3.8.3-7.7.7-8.6 1-1.3.4-1.5 3.2-1.5 20.9v20.5H1085v-20.8c0-16-.3-20.9-1.2-20.9-1.5 0-15.1-1.3-19.3-1.8-1.6-.2-6.8-.6-11.5-1s-9.6-.8-11-1c-1.4-.2-5.4-.6-9-1-3.6-.3-8.3-.8-10.5-1-6.9-.7-16.8-1.6-21.5-1.9-6.9-.6-18.2-1.7-21.5-2.1-1.6-.2-6.1-.6-10-1-10-.8-15.8-1.5-16.5-2-.4-.2-.8-5.5-.9-11.7-.2-6.2-.5-15.1-.6-19.8-2.8-92-2.9-579.1 0-670.5.2-5.5.4-15.1.6-21.3l.2-11.2h105.3c99.4 0 105.3.1 105.8 1.7.5 1.6 2.5 11.9 4.1 20.8.2 1.6.7 4.1 1 5.5.3 1.4.8 3.6 1.1 5 .2 1.4.9 4.7 1.4 7.5.5 2.7 1.2 6.3 1.5 8 .3 1.6.7 4.1 1 5.5.7 3.3 2.4 11.8 3 15 .2 1.4 1.6 8.6 3 16 1.5 7.4 2.8 14.6 3.1 16 .2 1.4.7 3.6.9 5 .3 1.4.8 3.8 1.1 5.5.2 1.6.7 3.7.9 4.5.3.8.7 3.2 1.1 5.4.6 3.9.9 5.4 2.1 11.6.4 1.9.7 3.7.8 4 0 .3 1.4 7.4 3 15.7l2.9 15.3h57.7l-.6-10.8c-.3-5.9-.7-14.3-1-18.7-.2-4.4-.7-13-1-19-.3-6.1-.8-14.8-1-19.5-.3-4.7-.7-13-1-18.5-.2-5.5-.7-14.5-1-20-1.1-20.2-2-36-3-57-.4-6.6-.8-14.3-1-17-.1-2.8-.6-12.2-1-21s-.9-16.3-1.1-16.7c-.6-.9-681.2-.9-681.8 0zM1535.7 1425.6c-.1.1-6.5.4-14.2.8-17 .8-21 1.2-34.4 3.2-10.5 1.6-12.7 2-17.1 2.9-1.4.3-3.4.7-4.5.9-1.1.2-4 .9-6.5 1.6-2.5.7-5.2 1.4-6 1.5-6.7 1.5-26.5 8.4-37 13-31.2 13.4-58.2 33.7-78.2 58.5-4.5 5.6-14.8 20.5-14.8 21.4 0 .3-1.3 2.7-2.8 5.3-3.9 6.6-10.4 22-13.7 32.3-2.9 9.2-2.9 14.7-.1 22.7 7.8 22 28.9 33.2 56.7 30 10.9-1.2 19.7-5.2 26.9-12.1 9.5-8.9 15.2-18.8 20-35.1 1-3.3 4.6-15.2 8-26.5 3.3-11.3 6.3-21.2 6.5-22 .2-.8 2.7-9.2 5.5-18.5 2.9-9.4 5.4-17.9 5.7-19.1.4-1.9 4.9-3.8 13.8-5.9.6-.2 3.7-1 7-1.8 7.6-2 12.2-2.9 24.5-4.6 19.7-2.9 53.1-2.8 71.5 0 42.8 6.6 66.7 26.5 79.3 66 1.7 5.3 3.3 10.7 3.6 12 .2 1.3 1.1 6.1 2 10.5.8 4.5 1.8 10.8 2.1 14 .3 3.3.8 7 1 8.4 1.5 8.4 2.8 78.9 1.6 80.9-.5.7-5.2 2-13.6 3.7-10.6 2.1-67.9 17.2-92 24.2-5.5 1.6-10.9 3.2-12 3.5-10.4 2.7-41.2 12.8-53.9 17.6-113 43.4-167 88.5-179.6 149.9-2.3 11.7-3.2 20.5-3.3 32.7 0 7.9 1 23.2 1.8 27.5.2.8.8 4.4 1.5 8 5.4 28.8 21.1 56.7 42.6 75.9 17.4 15.5 43.8 29.5 64.4 34.2 13 3 16.9 3.8 20 4.3 17.4 2.8 54.4 2.9 68.6.2 1.2-.3 3.8-.7 5.9-1 11.1-1.8 29.8-7.9 42.5-13.9 9.3-4.4 25.6-13.9 33.5-19.5 5.4-3.9 26.2-20.4 31-24.7 8.3-7.3 22.1-20.2 32.9-30.8 12.9-12.7 12.7-12.7 13.9-4.7.3 1.9 1.2 6.2 2.1 9.5 11.4 42.7 36.1 70.8 70.9 80.9 11.3 3.3 17.6 4 33.7 4 30.5-.1 56.1-10.6 77-31.4 4.3-4.2 14.5-16.4 17.8-21.2l3.2-4.6-9.7-12-9.7-12-8.2 7.7c-13.5 12.6-26.6 18.9-40.9 19.5-23.7 1.2-38.8-10.1-46.3-34.6-1.9-6-2.8-10.2-4.8-22.3-.7-4-1.1-59.3-1.8-239-.1-53.4-.6-99-.8-101.5-.3-2.5-.9-7.2-1.3-10.5-1-9.2-4.4-29.6-5.5-33.5-.6-1.9-1.3-4.9-1.6-6.5-1-6.1-8.5-26.9-12.8-35.8-12.6-26.2-33.3-48.2-57.7-61.5-17.2-9.3-41.7-16.6-66.4-19.8-2.7-.3-6.1-.8-7.5-1-1.4-.2-9-.6-17-.9-8-.4-16.4-.8-18.8-.9-2.3-.1-4.3-.1-4.5 0zm106.8 377.7c0 54.4-.2 99.2-.5 99.6-.7 1-34.1 26.7-44.5 34.2-10.2 7.4-27.2 18.9-27.9 18.9-.3 0-2.2 1.2-4.3 2.6-12.6 8.6-38 18.7-55.3 21.9-5.6 1.1-35.9 1.4-42.5.5-38.6-5.3-64.5-22.4-77.1-50.7-6.8-15.5-9.5-30.7-9-51.3.4-14.8.5-15.9 3.2-26.8 7.6-30.6 30.3-56.5 70.9-80.5 15-8.9 57.4-27.4 84-36.7 34.5-12.1 97-31 101-30.7 2 .2 2 1.1 2 99zM2201.7 1425.6c-.1.1-5.8.5-12.7.8-6.9.4-13.6.9-15 1-10.8 1.4-18 2.5-20.9 3.1-19 4.1-29.1 6.8-42.7 11.6-25.4 8.9-50.9 22.5-72.2 38.5-45.9 34.5-79.3 82.3-98 140.4-6.5 20.2-10.6 37.4-12.7 54-.4 3-.9 5.8-1.1 6.1-.1.3-.6 3.7-.9 7.5-.4 3.8-.8 8-1.1 9.4-.8 4.7-1.8 27.4-1.8 42 0 14.4 1.2 41.8 1.8 42.9.2.3.7 4 1 8 .4 4.1.9 7.7 1 8 .2.4.6 2.8 1 5.6.9 7.2 1.4 10.2 5.1 27 8.7 39.9 30.8 86.5 55.2 116.6 36.7 45.1 82.3 75.1 138 90.8 7.6 2.2 15.6 4.3 17.8 4.7 2.2.4 4.2.8 4.5.9.3.1 2.5.5 5 .9 2.5.5 5.3 1 6.4 1.2 1 .2 4.4.6 7.5 1 3.1.3 7 .8 8.6 1.1 1.7.3 13.6.6 26.5.8 25.1.3 38.4-.8 61.5-5.1 25.2-4.6 55.8-16 82.5-30.6 27.2-14.9 57.5-41 77.6-66.8 14.9-19 27.5-40.5 36.4-61.6 2.2-5.4 4.5-10.8 5-11.9 1.5-3.7 6.2-17 6.6-18.9.2-1.1 1-4 1.9-6.5 1.6-5.1 7-27.5 7.9-33.1.3-1.9.8-4.6 1-6 .7-3.7 1.4-8.8 2.1-15 .4-3 .9-6.6 1.1-8 1.9-11.3 2.5-59.1 1.1-79.9-.4-6.3-1-11.7-1.1-12-.2-.3-.7-3.4-1-6.8-.4-3.5-1.5-11.3-2.6-17.5-1.2-6.2-2.3-12.7-2.6-14.3-1.1-6.2-6.6-26.4-10.1-36.5-11.6-34.4-29.5-67.4-49.7-91.8-3.4-4.1-7.7-9.2-9.6-11.5-4.6-5.6-24.8-24.4-33.5-31.3-29.3-23.1-66.6-41.2-103.9-50.4-10.5-2.6-17-3.8-34.6-6.4-1.9-.3-9.1-.8-16-1.2-18.4-.9-20.1-1-20.3-.8zm24.8 47.4c22.3 2.8 36.3 6.8 54 15.4 47.3 23 79.9 68.8 97.9 137.6 1.3 5.2 2.7 10.8 3 12.5 2.3 12.6 5.5 32.1 6.1 37.5.4 3.6.9 7.3 1.1 8.3 2.7 14 2.6 89.5-.1 112.2-.2 1.6-.7 5.5-1 8.5-.5 5-1.7 12.7-3 20.5-8.1 47.5-25 89.3-47.4 117.5-25 31.4-56.9 50.5-97.1 58.1-18.9 3.5-60.1 3.2-72.2-.7-1-.3-3-.7-4.5-1-9.5-1.7-28.9-8.7-39-14.1-36.2-19.3-63.6-52.6-81.1-98.3-6.4-16.8-12.1-37.9-15.7-58-1.6-9.5-3-19.1-4-29-.4-3-.8-7.1-1-9-2.4-19.6-2.4-86.3-.1-101 .3-1.4.7-5.4 1.1-9 .9-9.7 2.4-20.5 4.2-30 2-10.9 1.6-9.4 4.9-23.5.3-1.1.7-2.9.9-4 .3-1.1 1.6-5.8 3-10.5 1.5-4.7 2.8-9.2 3-10 .2-.8 1.5-4.4 2.8-8 26.6-71.5 72.6-112 137.7-121.4 9.6-1.4 37.4-1.7 46.5-.6z"/></svg>